<svg width="55" height="55" viewBox="0 0 55 55" fill="none" xmlns="http://www.w3.org/2000/svg">
<path d="M27.5 13.0122C24.781 13.0122 22.1232 13.8619 19.8624 15.4538C17.6017 17.0458 15.8397 19.3084 14.7992 21.9557C13.7587 24.603 13.4865 27.516 14.0169 30.3263C14.5473 33.1366 15.8566 35.7181 17.7792 37.7442C19.7018 39.7704 22.1513 41.1502 24.818 41.7092C27.4847 42.2682 30.2488 41.9813 32.7608 40.8848C35.2728 39.7882 37.4198 37.9313 38.9304 35.5488C40.441 33.1663 41.2472 30.3653 41.2472 27.4999C41.2431 23.6589 39.7934 19.9764 37.2162 17.2604C34.6389 14.5444 31.1447 13.0166 27.5 13.0122ZM27.5 37.8482C25.5579 37.8482 23.6594 37.2413 22.0446 36.1042C20.4298 34.9671 19.1712 33.3509 18.428 31.46C17.6848 29.5691 17.4903 27.4884 17.8692 25.481C18.2481 23.4737 19.1833 21.6298 20.5566 20.1825C21.9299 18.7353 23.6795 17.7497 25.5843 17.3504C27.4891 16.9511 29.4635 17.156 31.2577 17.9393C33.052 18.7225 34.5856 20.0489 35.6646 21.7507C36.7435 23.4524 37.3194 25.4532 37.3194 27.4999C37.3165 30.2435 36.281 32.8739 34.4402 34.8139C32.5993 36.7539 30.1034 37.8452 27.5 37.8482ZM54.5688 22.4173C54.4671 21.811 54.238 21.2363 53.8983 20.7353C53.5587 20.2343 53.117 19.8197 52.6056 19.5218L47.5675 16.5744C47.2443 15.914 46.892 15.2699 46.5119 14.6442L46.6089 8.56631C46.6202 7.9514 46.5008 7.34161 46.2594 6.78164C46.0181 6.22167 45.6609 5.72571 45.214 5.33013C42.7357 3.13034 39.9065 1.41164 36.8582 0.254011C36.309 0.04353 35.7221 -0.0348569 35.1405 0.0245888C34.5589 0.0840345 33.9973 0.279808 33.4967 0.597576L28.5553 3.72226C27.8512 3.6868 27.1459 3.68619 26.4417 3.72045L21.4959 0.593178C20.9962 0.275216 20.4353 0.0791845 19.8544 0.0194653C19.2734 -0.0402538 18.6872 0.0378552 18.1386 0.248061C15.0917 1.41005 12.2647 3.13278 9.78914 5.33608C9.34164 5.73209 8.98385 6.22855 8.74195 6.78912C8.50005 7.34969 8.38018 7.96018 8.3911 8.57589L8.48806 14.6478C8.10696 15.2729 7.75373 15.9164 7.42953 16.5762L2.38724 19.5265C1.87513 19.8249 1.43292 20.2404 1.09304 20.7424C0.753165 21.2444 0.524255 21.8202 0.423105 22.4277C-0.143744 25.7865 -0.141001 29.2247 0.431206 32.5825C0.53288 33.1889 0.761939 33.7636 1.10161 34.2646C1.44129 34.7657 1.88298 35.1803 2.39436 35.4782L7.43247 38.4257C7.7557 39.086 8.10795 39.7301 8.48806 40.3559L8.3911 46.4335C8.37974 47.0484 8.49912 47.6583 8.74047 48.2183C8.98183 48.7783 9.33905 49.2743 9.78595 49.6699C12.2643 51.8697 15.0934 53.5884 18.1418 54.746C18.691 54.9566 19.2778 55.035 19.8595 54.9756C20.4411 54.9161 21.0027 54.7203 21.5033 54.4025L26.4446 51.2778C27.1484 51.313 27.8557 51.3138 28.5583 51.2796L33.5041 54.4069C34.0038 54.7248 34.5647 54.9208 35.1456 54.9805C35.7265 55.0402 36.3128 54.9622 36.8614 54.752C39.9083 53.59 42.7353 51.8673 45.2108 49.664C45.6583 49.268 46.0162 48.7715 46.258 48.2109C46.4999 47.6504 46.6198 47.0399 46.6089 46.4242L46.5119 40.3523C46.893 39.7272 47.2462 39.0837 47.5704 38.4239L52.6127 35.4738C53.1248 35.1754 53.567 34.7599 53.9068 34.2579C54.2467 33.7559 54.4755 33.1801 54.5766 32.5727C55.1437 29.2138 55.1411 25.7755 54.5688 22.4176V22.4173ZM50.7065 31.8545L45.1266 35.1186C44.7403 35.3437 44.4378 35.7004 44.2687 36.1302C43.8743 36.9789 43.4224 37.7967 42.9165 38.577C42.6871 38.931 42.5675 39.3512 42.5743 39.7798L42.6794 46.4987C40.5586 48.387 38.1361 49.8629 35.5249 50.8574L30.0526 47.3969L30.0452 47.3923C29.6651 47.153 29.2191 47.0572 28.7804 47.1203C27.8896 47.1837 26.9955 47.1798 26.1051 47.1087C25.6998 47.0768 25.295 47.1779 24.9462 47.3979L19.4773 50.853C16.8651 49.8617 14.441 48.3888 12.3181 46.5031L12.4257 39.7779C12.4339 39.3129 12.2922 38.8586 12.0238 38.4893C11.5234 37.7049 11.0773 36.8835 10.6888 36.0316C10.5127 35.6452 10.2271 35.326 9.87138 35.1181L4.29786 31.8545C3.80654 28.9746 3.80504 26.0255 4.29344 23.1451L9.87334 19.8812C10.2634 19.6536 10.5681 19.2925 10.7367 18.8575C11.13 18.013 11.58 17.1993 12.0835 16.4225C12.3128 16.0687 12.4323 15.6485 12.4254 15.22L12.3206 8.50112C14.4414 6.61277 16.8639 5.13689 19.475 4.1424L24.9474 7.60288L24.9548 7.60754C25.335 7.84654 25.7809 7.9424 26.2195 7.87944C27.1104 7.81605 28.0045 7.81994 28.8948 7.89109C29.3002 7.92322 29.7051 7.82217 30.0538 7.60185L35.5227 4.1468C38.1349 5.13809 40.559 6.61099 42.6818 8.49672L42.5743 15.2219C42.5661 15.687 42.7079 16.1413 42.9764 16.5105C43.4767 17.2949 43.9229 18.1163 44.3114 18.9682C44.4874 19.3545 44.7728 19.6737 45.1283 19.8817L50.7021 23.1453C51.1934 26.0252 51.1949 28.9743 50.7065 31.8547V31.8545Z" fill="white"/>
</svg>
