<svg width="60" height="50" viewBox="0 0 60 50" fill="none" xmlns="http://www.w3.org/2000/svg">
<path d="M10 5.55556V33.3333H22.5V22.2222C22.5 20.7488 23.0268 19.3357 23.9645 18.2939C24.9021 17.252 26.1739 16.6667 27.5 16.6667H40C41.3261 16.6667 42.5979 17.252 43.5355 18.2939C44.4732 19.3357 45 20.7488 45 22.2222V33.3333H50V5.55556H10ZM0 44.4444V38.8889H10C8.67392 38.8889 7.40215 38.3036 6.46447 37.2617C5.52678 36.2198 5 34.8068 5 33.3333V5.55556C5 4.08213 5.52678 2.66905 6.46447 1.62718C7.40215 0.585316 8.67392 0 10 0H50C51.3261 0 52.5979 0.585316 53.5355 1.62718C54.4732 2.66905 55 4.08213 55 5.55556V33.3333C55 34.8068 54.4732 36.2198 53.5355 37.2617C52.5979 38.3036 51.3261 38.8889 50 38.8889H60V44.4444H45C45 45.9179 44.4732 47.3309 43.5355 48.3728C42.5979 49.4147 41.3261 50 40 50H27.5C26.1739 50 24.9021 49.4147 23.9645 48.3728C23.0268 47.3309 22.5 45.9179 22.5 44.4444H0ZM28.75 44.4444C28.4185 44.4444 28.1005 44.5908 27.8661 44.8512C27.6317 45.1117 27.5 45.465 27.5 45.8333C27.5 46.2017 27.6317 46.555 27.8661 46.8154C28.1005 47.0759 28.4185 47.2222 28.75 47.2222C29.0815 47.2222 29.3995 47.0759 29.6339 46.8154C29.8683 46.555 30 46.2017 30 45.8333C30 45.465 29.8683 45.1117 29.6339 44.8512C29.3995 44.5908 29.0815 44.4444 28.75 44.4444ZM38.75 44.4444C38.4185 44.4444 38.1005 44.5908 37.8661 44.8512C37.6317 45.1117 37.5 45.465 37.5 45.8333C37.5 46.2017 37.6317 46.555 37.8661 46.8154C38.1005 47.0759 38.4185 47.2222 38.75 47.2222C39.0815 47.2222 39.3995 47.0759 39.6339 46.8154C39.8683 46.555 40 46.2017 40 45.8333C40 45.465 39.8683 45.1117 39.6339 44.8512C39.3995 44.5908 39.0815 44.4444 38.75 44.4444ZM32.5 44.4444V47.2222H35V44.4444H32.5ZM27.5 22.2222V41.6667H40V22.2222H27.5Z" fill="white"/>
</svg>
