<svg width="57" height="55" viewBox="0 0 57 55" fill="none" xmlns="http://www.w3.org/2000/svg">
<path fill-rule="evenodd" clip-rule="evenodd" d="M52.3429 1.70534C52.3429 1.25306 52.1585 0.819297 51.8301 0.499483C51.5018 0.17967 51.0564 0 50.5921 0C50.1278 0 49.6824 0.17967 49.3541 0.499483C49.0257 0.819297 48.8413 1.25306 48.8413 1.70534V4.26336H46.2151C45.7507 4.26336 45.3054 4.44303 44.977 4.76284C44.6487 5.08265 44.4642 5.51641 44.4642 5.9687C44.4642 6.42098 44.6487 6.85475 44.977 7.17456C45.3054 7.49437 45.7507 7.67404 46.2151 7.67404H48.8413V10.2321C48.8413 10.6843 49.0257 11.1181 49.3541 11.4379C49.6824 11.7577 50.1278 11.9374 50.5921 11.9374C51.0564 11.9374 51.5018 11.7577 51.8301 11.4379C52.1585 11.1181 52.3429 10.6843 52.3429 10.2321V7.67404H54.9691C55.4335 7.67404 55.8788 7.49437 56.2072 7.17456C56.5355 6.85475 56.72 6.42098 56.72 5.9687C56.72 5.51641 56.5355 5.08265 56.2072 4.76284C55.8788 4.44303 55.4335 4.26336 54.9691 4.26336H52.3429V1.70534ZM43.3875 12.9862C43.5913 13.1842 43.753 13.4194 43.8633 13.6784C43.9736 13.9374 44.0304 14.215 44.0304 14.4954C44.0304 14.7758 43.9736 15.0534 43.8633 15.3124C43.753 15.5714 43.5913 15.8066 43.3875 16.0046L39.0104 20.268C38.807 20.4659 38.5654 20.6229 38.2997 20.7299C38.0339 20.8369 37.7492 20.8918 37.4616 20.8916C37.174 20.8914 36.8893 20.8361 36.6237 20.7287C36.3581 20.6213 36.1169 20.4641 35.9137 20.2659C35.5033 19.8656 35.273 19.3229 35.2734 18.7573C35.2736 18.4772 35.3305 18.1999 35.4407 17.9412C35.5509 17.6825 35.7124 17.4475 35.9159 17.2495L40.2929 12.9862C40.7033 12.5866 41.2599 12.3621 41.8402 12.3621C42.4205 12.3621 42.9771 12.5866 43.3875 12.9862ZM34.6334 21.5129C34.8372 21.7109 34.9989 21.9461 35.1092 22.2051C35.2196 22.4641 35.2763 22.7417 35.2763 23.0221C35.2763 23.3025 35.2196 23.5802 35.1092 23.8391C34.9989 24.0981 34.8372 24.3333 34.6334 24.5314L3.99406 54.3749C3.79058 54.5731 3.54901 54.7303 3.28315 54.8375C3.01729 54.9448 2.73235 55 2.44458 55C2.15682 55 1.87187 54.9448 1.60601 54.8375C1.34016 54.7303 1.09859 54.5731 0.895109 54.3749C0.691629 54.1767 0.53022 53.9414 0.420098 53.6824C0.309975 53.4235 0.253296 53.1459 0.253296 52.8656C0.253296 52.5853 0.309975 52.3078 0.420098 52.0488C0.53022 51.7899 0.691629 51.5546 0.895109 51.3564L31.5344 21.5129C31.7377 21.3144 31.9792 21.1569 32.2451 21.0494C32.511 20.942 32.796 20.8866 33.0839 20.8866C33.3718 20.8866 33.6568 20.942 33.9227 21.0494C34.1886 21.1569 34.4301 21.3144 34.6334 21.5129ZM50.5921 21.3168C51.555 21.3168 52.3429 22.0842 52.3429 23.0221V25.5801H54.9691C55.4335 25.5801 55.8788 25.7598 56.2072 26.0796C56.5355 26.3994 56.72 26.8332 56.72 27.2855C56.72 27.7378 56.5355 28.1715 56.2072 28.4913C55.8788 28.8112 55.4335 28.9908 54.9691 28.9908H52.3429V31.5488C52.3429 32.0011 52.1585 32.4349 51.8301 32.7547C51.5018 33.0745 51.0564 33.2542 50.5921 33.2542C50.1278 33.2542 49.6824 33.0745 49.3541 32.7547C49.0257 32.4349 48.8413 32.0011 48.8413 31.5488V28.9908H46.2151C45.7507 28.9908 45.3054 28.8112 44.977 28.4913C44.6487 28.1715 44.4642 27.7378 44.4642 27.2855C44.4642 26.8332 44.6487 26.3994 44.977 26.0796C45.3054 25.7598 45.7507 25.5801 46.2151 25.5801H48.8413V23.0221C48.8413 22.0842 49.6292 21.3168 50.5921 21.3168ZM30.4577 1.70534C30.4577 1.25306 30.2732 0.819297 29.9449 0.499483C29.6165 0.17967 29.1712 0 28.7069 0C28.2425 0 27.7972 0.17967 27.4688 0.499483C27.1405 0.819297 26.956 1.25306 26.956 1.70534V4.26336H24.3298C23.8655 4.26336 23.4201 4.44303 23.0918 4.76284C22.7635 5.08265 22.579 5.51641 22.579 5.9687C22.579 6.42098 22.7635 6.85475 23.0918 7.17456C23.4201 7.49437 23.8655 7.67404 24.3298 7.67404H26.956V10.2321C26.956 10.6843 27.1405 11.1181 27.4688 11.4379C27.7972 11.7577 28.2425 11.9374 28.7069 11.9374C29.1712 11.9374 29.6165 11.7577 29.9449 11.4379C30.2732 11.1181 30.4577 10.6843 30.4577 10.2321V7.67404H33.0839C33.5483 7.67404 33.9936 7.49437 34.3219 7.17456C34.6503 6.85475 34.8347 6.42098 34.8347 5.9687C34.8347 5.51641 34.6503 5.08265 34.3219 4.76284C33.9936 4.44303 33.5483 4.26336 33.0839 4.26336H30.4577V1.70534Z" fill="white"/>
</svg>
