<svg width="60" height="50" viewBox="0 0 60 50" fill="none" xmlns="http://www.w3.org/2000/svg">
<path d="M30 37.4559C27.6131 37.4559 25.3239 36.5452 23.636 34.9242C21.9482 33.3032 21 31.1046 21 28.8122C21 25.5852 22.83 22.7616 25.5 21.2922L54.63 5.09976L38.04 32.7018C36.54 35.5254 33.51 37.4559 30 37.4559ZM30 0C35.43 0 40.5 1.44061 44.91 3.80321L38.61 7.28949C36 6.30987 33 5.76244 30 5.76244C23.6348 5.76244 17.5303 8.19089 13.0295 12.5136C8.52858 16.8362 6.00002 22.699 6.00002 28.8122C6.00002 35.1797 8.67001 40.9421 13.02 45.0911H13.05C14.22 46.2148 14.22 48.0299 13.05 49.1536C11.88 50.2773 9.96001 50.2773 8.79001 49.1824C5.99994 46.5105 3.78709 43.3355 2.27862 39.8397C0.770149 36.3439 -0.00421721 32.5963 1.72731e-05 28.8122C1.72731e-05 21.1707 3.16072 13.8422 8.78681 8.4389C14.4129 3.03556 22.0435 0 30 0ZM60 28.8122C60 36.7644 56.64 43.9674 51.21 49.1824C50.04 50.2773 48.15 50.2773 46.98 49.1536C46.7019 48.8871 46.4812 48.5704 46.3307 48.2219C46.1802 47.8733 46.1027 47.4997 46.1027 47.1223C46.1027 46.745 46.1802 46.3714 46.3307 46.0228C46.4812 45.6743 46.7019 45.3576 46.98 45.0911C49.2111 42.9571 50.9801 40.4199 52.185 37.6258C53.3899 34.8318 54.0067 31.8363 54 28.8122C54 25.931 53.43 23.0498 52.38 20.4567L56.01 14.4061C58.5 18.7279 60 23.5684 60 28.8122Z" fill="white"/>
</svg>
