<svg width="40" height="34" viewBox="0 0 40 34" fill="none" xmlns="http://www.w3.org/2000/svg">
<path fill-rule="evenodd" clip-rule="evenodd" d="M39.0825 3.11079C39.3592 1.85079 39.0825 0.923096 37.7575 0.923096H33.3826C32.2693 0.923096 31.756 1.72386 31.4777 2.60771C31.4777 2.60771 29.2527 9.98309 26.1011 14.7739C25.0811 16.1631 24.6178 16.6039 24.0612 16.6039C23.7828 16.6039 23.3645 16.1631 23.3645 14.9008V3.11079C23.3645 1.59694 23.0578 0.923096 22.1312 0.923096H15.2513C14.5564 0.923096 14.138 1.62463 14.138 2.29156C14.138 3.72463 15.7147 4.05694 15.8763 8.09078V16.8554C15.8763 18.7777 15.6213 19.1262 15.0647 19.1262C13.5814 19.1262 9.97312 11.7162 7.8315 3.23771C7.41651 1.58771 6.99652 0.923096 5.87821 0.923096H1.49997C0.249995 0.923096 0 1.72386 0 2.60771C0 4.18156 1.4833 12 6.90819 22.3408C10.5248 29.4023 15.6163 33.2308 20.2546 33.2308C23.0362 33.2308 23.3795 32.3815 23.3795 30.9162V25.5785C23.3795 23.8777 23.6428 23.5385 24.5245 23.5385C25.1745 23.5385 26.2861 23.9815 28.8827 27.3854C31.8493 31.4215 32.3377 33.2308 34.0076 33.2308H38.3825C39.6325 33.2308 40.2592 32.3815 39.8992 30.7015C39.5025 29.0308 38.0859 26.6054 36.2076 23.7277C35.1876 22.0892 33.6576 20.3239 33.1926 19.44C32.5443 18.3069 32.7293 17.8015 33.1926 16.7931C33.1926 16.7931 38.5259 6.57925 39.0808 3.11079H39.0825Z" fill="white"/>
</svg>
