<svg width="40" height="37" viewBox="0 0 40 37" fill="none" xmlns="http://www.w3.org/2000/svg">
<path d="M34.1687 5.44237C32.3237 3.73535 30.1279 2.38202 27.7087 1.46096C25.2896 0.539906 22.6953 0.0694768 20.0766 0.076993C9.09992 0.076993 0.165818 8.28313 0.165818 18.3723C0.165818 21.5962 1.08536 24.7485 2.82645 27.5177L0 37L10.5596 34.4546C13.4789 35.9152 16.7498 36.6816 20.0741 36.6838H20.0816C31.0583 36.6838 39.9999 28.4777 39.9999 18.3885C40.0066 15.984 39.4945 13.6021 38.4932 11.3804C37.4919 9.1587 36.0212 7.14128 34.1661 5.44467L34.1687 5.44237ZM20.0816 33.5962C17.1149 33.5966 14.2026 32.8641 11.65 31.4754L11.0445 31.1431L4.77859 32.65L6.45185 27.04L6.05991 26.4631C4.39609 24.0418 3.51684 21.2356 3.5249 18.3723C3.53022 14.3387 5.27759 10.4718 8.38353 7.62022C11.4895 4.76866 15.7002 3.16543 20.0917 3.16237C24.511 3.16237 28.674 4.75006 31.7969 7.61852C33.3381 9.02894 34.5596 10.7059 35.391 12.5525C36.2225 14.3991 36.6472 16.3787 36.6409 18.377C36.6333 26.77 29.2067 33.5939 20.0816 33.5939V33.5962ZM29.1589 22.2031C28.664 21.9723 26.2144 20.8693 25.7596 20.717C25.3049 20.5646 24.9733 20.4862 24.6366 20.9477C24.3075 21.4023 23.3503 22.4339 23.0588 22.7431C22.7674 23.0454 22.4785 23.0893 21.9835 22.8585C21.4886 22.6277 19.8781 22.1454 17.9787 20.5877C16.5015 19.3762 15.499 17.8762 15.2076 17.4216C14.9161 16.967 15.1749 16.7154 15.4287 16.4916C15.6573 16.2885 15.9236 15.9585 16.1748 15.6908C16.4261 15.4231 16.504 15.2362 16.6698 14.927C16.8356 14.6247 16.7552 14.357 16.6296 14.1262C16.504 13.8954 15.5065 11.6454 15.0995 10.7293C14.7001 9.8339 14.283 9.95851 13.9765 9.94236C13.685 9.92851 13.3559 9.92851 13.0268 9.92851C12.6977 9.92851 12.155 10.0439 11.7003 10.4985C11.2455 10.9531 9.95665 12.0631 9.95665 14.3131C9.95665 16.5631 11.7379 18.7346 11.9892 19.0439C12.2404 19.3462 15.499 23.9685 20.4911 25.9462C21.677 26.4146 22.6041 26.6962 23.3251 26.9131C24.5185 27.2592 25.6014 27.2085 26.4581 27.0931C27.4153 26.9639 29.4026 25.99 29.8197 24.9216C30.2367 23.8531 30.2367 22.9393 30.1111 22.75C29.993 22.5469 29.6639 22.4339 29.1614 22.2008L29.1589 22.2031Z" fill="white"/>
</svg>
