<svg width="64" height="64" viewBox="0 0 64 64" fill="none" xmlns="http://www.w3.org/2000/svg">
<rect width="64" height="64" fill="#171422"/>
<rect x="1.5" y="1.5" width="61" height="61" fill="#171422"/>
<path d="M50.824 56.952C51.976 59.928 53.632 61.464 55.792 61.56V63C53.872 62.856 51.304 62.784 48.088 62.784C43.96 62.784 40.888 62.856 38.872 63V61.56C40.696 61.464 41.992 61.248 42.76 60.912C43.576 60.528 43.984 59.856 43.984 58.896C43.984 58.08 43.696 56.952 43.12 55.512L38.728 43.704H21.304L18.352 51.336C17.392 53.928 16.912 55.896 16.912 57.24C16.912 58.728 17.416 59.808 18.424 60.48C19.48 61.152 21.064 61.512 23.176 61.56V63C20.44 62.856 17.68 62.784 14.896 62.784C12.736 62.784 10.936 62.856 9.496 63V61.56C11.896 60.984 13.792 58.896 15.184 55.296L32.104 11.664H33.256L50.824 56.952ZM38.152 42.264L30.088 20.736L21.88 42.264H38.152Z" fill="white"/>
<rect x="1.5" y="1.5" width="61" height="61" stroke="white"/>
</svg>
